<?xml version="1.0" encoding="UTF-8" standalone="no"?>
<!-- Created with Inkscape (http://www.inkscape.org/) -->

<svg
   xmlns:dc="http://purl.org/dc/elements/1.1/"
   xmlns:cc="http://creativecommons.org/ns#"
   xmlns:rdf="http://www.w3.org/1999/02/22-rdf-syntax-ns#"
   xmlns:svg="http://www.w3.org/2000/svg"
   xmlns="http://www.w3.org/2000/svg"
   xmlns:sodipodi="http://sodipodi.sourceforge.net/DTD/sodipodi-0.dtd"
   xmlns:inkscape="http://www.inkscape.org/namespaces/inkscape"
   version="1.1"
   width="150"
   height="57"
   id="svg2"
   xml:space="preserve"
   inkscape:version="0.48.5 r10040"
   sodipodi:docname="header.svg"><sodipodi:namedview
     pagecolor="#ffffff"
     bordercolor="#666666"
     borderopacity="1"
     objecttolerance="10"
     gridtolerance="10"
     guidetolerance="10"
     inkscape:pageopacity="0"
     inkscape:pageshadow="2"
     inkscape:window-width="1280"
     inkscape:window-height="978"
     id="namedview50"
     showgrid="false"
     inkscape:zoom="1.9976444"
     inkscape:cx="141.16479"
     inkscape:cy="41.423116"
     inkscape:window-x="-4"
     inkscape:window-y="20"
     inkscape:window-maximized="1"
     inkscape:current-layer="svg2" /><metadata
     id="metadata8"><rdf:RDF><cc:Work
         rdf:about=""><dc:format>image/svg+xml</dc:format><dc:type
           rdf:resource="http://purl.org/dc/dcmitype/StillImage" /></cc:Work></rdf:RDF></metadata><defs
     id="defs6"><clipPath
       id="clipPath18"><path
         d="m 0,0 4145.66,0 0,955 L 0,955 0,0 z"
         inkscape:connector-curvature="0"
         id="path20" /></clipPath></defs><g
     transform="matrix(0.34780262,0,0,-0.34780262,3.0036455,43.926232)"
     id="g10"><g
       transform="scale(0.1,0.1)"
       id="g12"><g
         id="g14"><g
           clip-path="url(#clipPath18)"
           id="g16"><path
             d="M 276.648,896.871 366.293,792.48 c 3.844,-4.964 -1.25,-8.636 -1.25,-8.636 -35.922,-19.375 -61.914,-48.653 -84.148,-82.18 -4.415,-6.652 -9.176,-1.82 -9.176,-1.82 l -113.59,85.062 c 0,0 -4.883,2.871 -0.609,8.547 33.261,44.168 63.476,75.317 111.789,104.723 0,0 3.66,3.449 7.339,-1.305"
             inkscape:connector-curvature="0"
             id="path22"
             style="fill:#d52c24;fill-opacity:1;fill-rule:nonzero;stroke:none" /><path
             d="m 117.633,726.809 134.246,-64.895 c 6.379,-2.473 3.187,-8.281 3.187,-8.281 -18.546,-44.137 -29.847,-81.399 -38.566,-126.547 -1.461,-7.559 -6.59,-5.137 -6.59,-5.137 L 58.9062,587.516 c 0,0 -4.5273,1.695 -2.6367,7.511 6.7032,20.657 40.8594,103.118 54.5705,130.067 0,0 2.402,4.086 6.793,1.715"
             inkscape:connector-curvature="0"
             id="path24"
             style="fill:#c82624;fill-opacity:1;fill-rule:nonzero;stroke:none" /><path
             d="m 42.5195,518.344 c 30.7071,-9.457 159.5545,-39.133 159.5545,-39.133 7.723,-2.379 5.422,-8.172 5.422,-8.172 -8.891,-70 -6.961,-123.422 -6.961,-141.879 0,-8.183 -5.957,-6.98 -5.957,-6.98 -33.449,0 -188.03112,0 -188.03112,0 -8.17188,0 -6.378911,7.363 -6.378911,7.363 1.535151,23.316 8.257811,89.668 34.183631,184.793 0,0 1.289,6.129 8.1679,4.008"
             inkscape:connector-curvature="0"
             id="path26"
             style="fill:#ac1f22;fill-opacity:1;fill-rule:nonzero;stroke:none" /><path
             d="M 657.777,896.871 568.137,792.48 c -3.844,-4.964 1.25,-8.636 1.25,-8.636 35.922,-19.375 61.914,-48.653 84.148,-82.18 4.414,-6.652 9.176,-1.82 9.176,-1.82 l 113.59,85.062 c 0,0 4.883,2.871 0.609,8.547 -33.262,44.168 -63.476,75.317 -111.789,104.723 0,0 -3.66,3.449 -7.344,-1.305"
             inkscape:connector-curvature="0"
             id="path28"
             style="fill:#d52c24;fill-opacity:1;fill-rule:nonzero;stroke:none" /><path
             d="m 467.219,807.52 c 15.086,0 43.023,-1.442 56.211,-3.629 6.886,-1.141 8.59,3.41 8.59,3.41 l 56.425,117.914 c 0,0 3.778,4.437 -4.125,7.328 -42.117,15.41 -64.519,22.5 -117.101,22.5 -51.961,0 -74.992,-7.09 -117.114,-22.5 -7.898,-2.891 -4.125,-7.328 -4.125,-7.328 l 56.426,-117.914 c 0,0 1.703,-4.551 8.594,-3.41 13.184,2.187 41.125,3.629 56.219,3.629"
             inkscape:connector-curvature="0"
             id="path30"
             style="fill:#df3d3c;fill-opacity:1;fill-rule:nonzero;stroke:none" /><path
             d="M 816.797,726.809 682.551,661.914 c -6.379,-2.473 -3.192,-8.281 -3.192,-8.281 18.551,-44.137 29.852,-81.399 38.571,-126.547 1.461,-7.559 6.586,-5.137 6.586,-5.137 l 151.007,65.567 c 0,0 4.528,1.695 2.637,7.511 -6.707,20.657 -40.859,103.118 -54.57,130.067 0,0 -2.402,4.086 -6.793,1.715"
             inkscape:connector-curvature="0"
             id="path32"
             style="fill:#c82624;fill-opacity:1;fill-rule:nonzero;stroke:none" /><path
             d="m 891.91,518.344 c -30.711,-9.457 -159.555,-39.133 -159.555,-39.133 -7.722,-2.379 -5.421,-8.172 -5.421,-8.172 8.89,-70 6.957,-123.422 6.957,-141.879 0,-8.183 5.957,-6.98 5.957,-6.98 33.453,0 188.035,0 188.035,0 8.172,0 6.379,7.363 6.379,7.363 -1.535,23.316 -8.262,89.668 -34.184,184.793 0,0 -1.289,6.129 -8.168,4.008"
             inkscape:connector-curvature="0"
             id="path34"
             style="fill:#ac1f22;fill-opacity:1;fill-rule:nonzero;stroke:none" /><path
             d="m 1966.89,39.5234 0,72.5466 -12.52,0 0,16.145 12.52,0 0,9.461 c 0,11.25 2.42,19.035 7.28,23.332 4.86,4.304 13.66,6.453 26.39,6.453 2.17,0 5.17,-0.098 9.01,-0.281 l 0,-16.614 c -2.91,0.684 -5.39,1.028 -7.43,1.028 -9.33,0 -14,-4.641 -14,-13.918 l 0,-9.461 22.07,0 0,-16.145 -22.07,0 0,-72.5466 -21.25,0"
             inkscape:connector-curvature="0"
             id="path36"
             style="fill:#74777e;fill-opacity:1;fill-rule:nonzero;stroke:none" /><path
             d="m 2017.15,39.5234 21.2422,0 0,126.629 -21.2422,0 0,-126.629 z"
             inkscape:connector-curvature="0"
             id="path38"
             style="fill:#74777e;fill-opacity:1;fill-rule:nonzero;stroke:none" /><path
             d="m 2111.85,93.0469 -0.09,3.5351 c 0,7.051 -1.22,11.621 -3.66,13.73 -2.45,2.09 -7.75,3.145 -15.92,3.145 -7.91,0 -13.06,-1.269 -15.44,-3.801 -2.38,-2.539 -3.57,-8.074 -3.57,-16.6091 l 38.68,0 z m -0.18,-25.1367 21.33,0 0,-3.4375 c 0,-17.3165 -12.99,-25.9766 -38.96,-25.9766 -17.62,0 -29.16,3.0078 -34.6,9.0039 -5.44,5.9961 -8.17,18.7109 -8.17,38.125 0,17.266 2.85,28.855 8.54,34.797 5.69,5.933 16.79,8.902 33.31,8.902 15.83,0 26.44,-2.886 31.82,-8.672 5.38,-5.789 8.06,-17.156 8.06,-34.0895 l 0,-6.5039 -60.02,0 c -0.12,-1.9727 -0.18,-3.2813 -0.18,-3.8867 0,-8.7305 1.35,-14.5391 4.03,-17.4414 2.7,-2.9102 8.06,-4.3672 16.09,-4.3672 7.8,0 12.88,0.8515 15.22,2.5508 2.35,1.6992 3.53,5.3711 3.53,10.9961"
             inkscape:connector-curvature="0"
             id="path40"
             style="fill:#74777e;fill-opacity:1;fill-rule:nonzero;stroke:none" /><path
             d="m 2218.52,128.215 -25.78,-41.7502 28.66,-46.9414 -25.42,0 -17.81,32.1954 -17.34,-32.1954 -26.08,0 29.04,46.668 -25.6,42.0236 25.32,0 14.66,-28.117 15.03,28.117 25.32,0"
             inkscape:connector-curvature="0"
             id="path42"
             style="fill:#74777e;fill-opacity:1;fill-rule:nonzero;stroke:none" /><path
             d="m 2247.73,128.215 0,-88.6916 -21.24,0 0,88.6916 21.24,0 z m 0,37.937 0,-17.714 -21.24,0 0,17.714 21.24,0"
             inkscape:connector-curvature="0"
             id="path44"
             style="fill:#74777e;fill-opacity:1;fill-rule:nonzero;stroke:none" /><path
             d="m 2306.07,112.539 c -13.79,0 -20.68,-8.574 -20.68,-25.7031 0,-13.4179 1.17,-22.0312 3.51,-25.8398 2.35,-3.8008 7.68,-5.7031 15.96,-5.7031 8.66,0 14.2,1.75 16.61,5.2422 2.41,3.4882 3.62,11.4882 3.62,23.9765 0,11.6328 -1.2,19.2113 -3.57,22.7343 -2.38,3.527 -7.53,5.293 -15.45,5.293 z m -42.21,-73.0156 0,126.6286 21.24,0 0,-50.644 0.46,-0.196 c 3.65,9.336 12.9,14.012 27.75,14.012 12.74,0 21.47,-3.101 26.21,-9.324 4.72,-6.211 7.1,-17.734 7.1,-34.5508 0,-18.3789 -2.41,-30.793 -7.2,-37.2578 -4.8,-6.4531 -14,-9.6953 -27.6,-9.6953 -13.79,0 -22.85,5.0195 -27.18,15.0391 l -0.47,0 0.93,-14.0118 -21.24,0"
             inkscape:connector-curvature="0"
             id="path46"
             style="fill:#74777e;fill-opacity:1;fill-rule:nonzero;stroke:none" /><path
             d="m 2359.58,39.5234 21.25,0 0,126.629 -21.25,0 0,-126.629 z"
             inkscape:connector-curvature="0"
             id="path48"
             style="fill:#74777e;fill-opacity:1;fill-rule:nonzero;stroke:none" /><path
             d="m 2454.28,93.0469 -0.09,3.5351 c 0,7.051 -1.22,11.621 -3.66,13.73 -2.45,2.09 -7.75,3.145 -15.92,3.145 -7.91,0 -13.06,-1.269 -15.44,-3.801 -2.38,-2.539 -3.57,-8.074 -3.57,-16.6091 l 38.68,0 z m -0.17,-25.1367 21.32,0 0,-3.4375 c 0,-17.3165 -12.98,-25.9766 -38.96,-25.9766 -17.62,0 -29.16,3.0078 -34.6,9.0039 -5.44,5.9961 -8.16,18.7109 -8.16,38.125 0,17.266 2.84,28.855 8.53,34.797 5.69,5.933 16.79,8.902 33.31,8.902 15.83,0 26.44,-2.886 31.82,-8.672 5.38,-5.789 8.06,-17.156 8.06,-34.0895 l 0,-6.5039 -60.01,0 c -0.13,-1.9727 -0.19,-3.2813 -0.19,-3.8867 0,-8.7305 1.35,-14.5391 4.03,-17.4414 2.7,-2.9102 8.06,-4.3672 16.1,-4.3672 7.79,0 12.87,0.8515 15.21,2.5508 2.35,1.6992 3.54,5.3711 3.54,10.9961"
             inkscape:connector-curvature="0"
             id="path50"
             style="fill:#74777e;fill-opacity:1;fill-rule:nonzero;stroke:none" /><path
             d="m 2572.99,112.539 c -8.1,0 -13.39,-1.836 -15.86,-5.477 -2.48,-3.656 -3.71,-11.3784 -3.71,-23.1948 0,-11.5039 1.33,-19.1406 3.99,-22.9102 2.65,-3.7773 8.06,-5.664 16.23,-5.664 8.29,0 13.67,1.7968 16.15,5.3828 2.47,3.582 3.71,11.2773 3.71,23.0937 0,12.1289 -1.26,19.9535 -3.76,23.4765 -2.51,3.527 -8.08,5.293 -16.75,5.293 z m -41.83,15.676 21.61,0 -0.83,-13.176 0.46,-0.098 c 5.13,9.59 14.68,14.383 28.66,14.383 12.93,0 21.82,-3.199 26.68,-9.597 4.85,-6.407 7.28,-18.086 7.28,-35.02 0,-17.6953 -2.42,-29.8242 -7.24,-36.3672 -4.83,-6.5625 -13.76,-9.8437 -26.81,-9.8437 -13.91,0 -23.01,4.6484 -27.27,13.9258 l -0.37,0 0,-50.93752 -22.17,0 0,126.73062"
             inkscape:connector-curvature="0"
             id="path52"
             style="fill:#74777e;fill-opacity:1;fill-rule:nonzero;stroke:none" /><path
             d="m 2628.55,128.215 21.25,0 -1.3,-12.434 0.46,-0.097 c 5.08,9.277 13.06,13.925 23.95,13.925 15.58,0 23.37,-9.843 23.37,-29.511 l 0,-6.2113 -20.03,0 c 0.24,2.4141 0.37,3.9844 0.37,4.7266 0,9.4727 -3.69,14.1987 -11.05,14.1987 -10.52,0 -15.77,-7.019 -15.77,-21.0542 l 0,-52.2344 -21.25,0 0,88.6916"
             inkscape:connector-curvature="0"
             id="path54"
             style="fill:#74777e;fill-opacity:1;fill-rule:nonzero;stroke:none" /><path
             d="m 2742.08,112.441 c -8.83,0 -14.47,-1.589 -16.87,-4.773 -2.42,-3.195 -3.62,-10.625 -3.62,-22.3164 0,-13.3594 1.14,-21.7071 3.42,-25.0469 2.3,-3.3399 8.02,-5.0117 17.17,-5.0117 8.85,0 14.43,1.7578 16.75,5.2929 2.32,3.5157 3.48,11.9922 3.48,25.4102 0,11.3281 -1.2,18.5549 -3.63,21.7189 -2.4,3.144 -7.96,4.726 -16.7,4.726 z m 0.2,16.797 c 17.13,0 28.35,-2.746 33.67,-8.215 5.32,-5.476 7.98,-17.019 7.98,-34.6558 0,-19.668 -2.6,-32.5586 -7.79,-38.6797 -5.2,-6.125 -16.14,-9.1914 -32.84,-9.1914 -18.13,0 -29.87,2.8516 -35.21,8.5351 -5.35,5.6954 -8.03,18.2227 -8.03,37.5782 0,18.6136 2.63,30.7026 7.88,36.2696 5.27,5.566 16.7,8.359 34.34,8.359"
             inkscape:connector-curvature="0"
             id="path56"
             style="fill:#74777e;fill-opacity:1;fill-rule:nonzero;stroke:none" /><path
             d="m 2817.86,166.152 0,-17.714 -21.24,0 0,17.714 21.24,0 z m -0.09,-37.937 0,-92.4923 c 0,-17.7539 -7.88,-26.62895 -23.66,-26.62895 -2.23,0 -4.67,0.24219 -7.33,0.74219 l 0,15.12496 2.13,0 c 5.08,0 7.62,4.1719 7.62,12.5196 l 0,90.7345 21.24,0"
             inkscape:connector-curvature="0"
             id="path58"
             style="fill:#74777e;fill-opacity:1;fill-rule:nonzero;stroke:none" /><path
             d="m 2891.5,93.0469 -0.09,3.5351 c 0,7.051 -1.22,11.621 -3.66,13.73 -2.45,2.09 -7.75,3.145 -15.92,3.145 -7.91,0 -13.07,-1.269 -15.44,-3.801 -2.38,-2.539 -3.57,-8.074 -3.57,-16.6091 l 38.68,0 z m -0.18,-25.1367 21.33,0 0,-3.4375 c 0,-17.3165 -12.99,-25.9766 -38.96,-25.9766 -17.62,0 -29.16,3.0078 -34.6,9.0039 -5.44,5.9961 -8.17,18.7109 -8.17,38.125 0,17.266 2.84,28.855 8.54,34.797 5.69,5.933 16.79,8.902 33.31,8.902 15.83,0 26.43,-2.886 31.81,-8.672 5.39,-5.789 8.07,-17.156 8.07,-34.0895 l 0,-6.5039 -60.02,0 c -0.13,-1.9727 -0.18,-3.2813 -0.18,-3.8867 0,-8.7305 1.34,-14.5391 4.03,-17.4414 2.69,-2.9102 8.06,-4.3672 16.09,-4.3672 7.8,0 12.87,0.8515 15.22,2.5508 2.35,1.6992 3.53,5.3711 3.53,10.9961"
             inkscape:connector-curvature="0"
             id="path60"
             style="fill:#74777e;fill-opacity:1;fill-rule:nonzero;stroke:none" /><path
             d="m 2982.12,73.3789 21.16,0 0,-3.0586 -1.3,-13.4453 c -2.6,-12.2461 -15.28,-18.3789 -38.04,-18.3789 -16.7,0 -27.8,3.0195 -33.31,9.0547 -5.5,6.0234 -8.25,18.164 -8.25,36.414 0,17.8122 2.75,29.8052 8.25,35.9962 5.51,6.172 16.21,9.277 32.11,9.277 15.33,0 25.72,-2.246 31.17,-6.726 5.44,-4.485 8.17,-13.008 8.17,-25.5589 l -21.07,0 c 0,10.3199 -5.97,15.4879 -17.9,15.4879 -8.48,0 -13.8,-1.64 -15.96,-4.921 -2.16,-3.282 -3.25,-11.3091 -3.25,-24.1216 0,-12.3632 1.19,-20.1367 3.58,-23.332 2.37,-3.1797 8.21,-4.7734 17.49,-4.7734 7.29,0 11.97,1.0937 14.05,3.2929 2.07,2.1953 3.1,7.1289 3.1,14.793"
             inkscape:connector-curvature="0"
             id="path62"
             style="fill:#74777e;fill-opacity:1;fill-rule:nonzero;stroke:none" /><path
             d="m 3071.35,128.215 0,-16.145 -34.14,0 0,-44.5309 c 0,-8.2227 3.13,-12.3438 9.37,-12.3438 6.87,0 10.3,4.9805 10.3,14.9414 l 0,3.5235 18.1,0 0,-4.4493 c 0,-4.082 -0.13,-7.5781 -0.38,-10.4804 -1.18,-13.5547 -11.26,-20.3243 -30.25,-20.3243 -18.93,0 -28.38,8.6836 -28.38,26.0665 l 0,47.5973 -11.5,0 0,16.145 11.5,0 0,19.851 21.24,0 0,-19.851 34.14,0"
             inkscape:connector-curvature="0"
             id="path64"
             style="fill:#74777e;fill-opacity:1;fill-rule:nonzero;stroke:none" /><path
             d="m 3124.67,128.215 21.24,0 -0.55,-13.645 0.47,-0.09 c 4.32,9.836 13.35,14.758 27.09,14.758 16.01,0 24.92,-5.476 26.71,-16.426 l 0.37,0 c 4.15,10.95 13.27,16.426 27.37,16.426 20.54,0 30.8,-10.332 30.8,-30.9958 l 0,-58.7188 -21.25,0 0,54.0899 c 0,12.5467 -5.16,18.8277 -15.49,18.8277 -12.93,0 -19.39,-7.019 -19.39,-21.0543 l 0,-51.8633 -21.24,0 0,54.918 c 0,7.3556 -0.98,12.1996 -2.92,14.5236 -1.96,2.312 -6.08,3.476 -12.39,3.476 -13.05,0 -19.58,-7.175 -19.58,-21.523 l 0,-51.3946 -21.24,0 0,88.6916"
             inkscape:connector-curvature="0"
             id="path66"
             style="fill:#74777e;fill-opacity:1;fill-rule:nonzero;stroke:none" /><path
             d="m 3311.4,79.2305 c -12,0 -18,-4.1524 -18,-12.4336 0,-5.75 1.24,-9.5313 3.71,-11.3164 2.47,-1.7969 7.67,-2.6875 15.59,-2.6875 12.93,0 19.38,4.3554 19.38,13.0742 0,8.9062 -6.89,13.3633 -20.68,13.3633 z m -14.2,23.2895 -21.7,0 c 0,10.625 2.47,17.746 7.42,21.328 4.95,3.593 14.75,5.39 29.41,5.39 15.96,0 26.75,-2.207 32.37,-6.59 5.64,-4.394 8.45,-12.773 8.45,-25.148 l 0,-57.9766 -21.24,0 1.01,12.1563 -0.55,0.0898 c -4.08,-8.8476 -13.52,-13.2734 -28.29,-13.2734 -21.47,0 -32.2,9.1211 -32.2,27.3711 0,18.4297 10.98,27.6484 32.94,27.6484 14.65,0 23.55,-3.3789 26.72,-10.1172 l 0.37,0 0,14.3828 c 0,6.9258 -1.21,11.5158 -3.62,13.7808 -2.42,2.254 -7.37,3.379 -14.85,3.379 -10.82,0 -16.24,-4.14 -16.24,-12.421"
             inkscape:connector-curvature="0"
             id="path68"
             style="fill:#74777e;fill-opacity:1;fill-rule:nonzero;stroke:none" /><path
             d="m 3369.56,128.215 21.05,0 -0.84,-14.934 0.47,-0.097 c 4.14,10.703 13.42,16.054 27.83,16.054 20.97,0 31.45,-9.785 31.45,-29.3161 l 0,-60.3985 -21.24,0 0,56.7774 -0.46,6.2192 c -1,6.613 -6.19,9.921 -15.59,9.921 -14.3,0 -21.43,-6.777 -21.43,-20.3121 l 0,-52.6055 -21.24,0 0,88.6916"
             inkscape:connector-curvature="0"
             id="path70"
             style="fill:#74777e;fill-opacity:1;fill-rule:nonzero;stroke:none" /><path
             d="m 3501.83,79.2305 c -12,0 -18,-4.1524 -18,-12.4336 0,-5.75 1.24,-9.5313 3.71,-11.3164 2.47,-1.7969 7.67,-2.6875 15.59,-2.6875 12.93,0 19.38,4.3554 19.38,13.0742 0,8.9062 -6.89,13.3633 -20.68,13.3633 z m -14.2,23.2895 -21.7,0 c 0,10.625 2.47,17.746 7.42,21.328 4.95,3.593 14.75,5.39 29.41,5.39 15.96,0 26.75,-2.207 32.37,-6.59 5.64,-4.394 8.45,-12.773 8.45,-25.148 l 0,-57.9766 -21.24,0 1.01,12.1563 -0.55,0.0898 c -4.08,-8.8476 -13.52,-13.2734 -28.29,-13.2734 -21.47,0 -32.2,9.1211 -32.2,27.3711 0,18.4297 10.98,27.6484 32.94,27.6484 14.65,0 23.55,-3.3789 26.72,-10.1172 l 0.37,0 0,14.3828 c 0,6.9258 -1.21,11.5158 -3.62,13.7808 -2.42,2.254 -7.37,3.379 -14.85,3.379 -10.82,0 -16.24,-4.14 -16.24,-12.421"
             inkscape:connector-curvature="0"
             id="path72"
             style="fill:#74777e;fill-opacity:1;fill-rule:nonzero;stroke:none" /><path
             d="m 3597.47,112.441 c -8.17,0 -13.41,-1.66 -15.74,-4.961 -2.31,-3.308 -3.47,-10.8394 -3.47,-22.5972 0,-12.4883 1.16,-20.4687 3.47,-23.9258 2.33,-3.4765 7.66,-5.1953 16.01,-5.1953 8.35,0 13.76,1.7774 16.23,5.3321 2.48,3.5546 3.71,11.4257 3.71,23.6132 0,11.6797 -1.23,19.231 -3.71,22.637 -2.47,3.398 -7.97,5.097 -16.5,5.097 z m 41.83,15.774 0,-90.3634 c 0,-14.4727 -2.92,-24.3946 -8.77,-29.78519 C 3624.69,2.69531 3613.91,0 3598.21,0 c -15.22,0 -25.39,2.04297 -30.53,6.125 -5.14,4.0781 -7.69,12.1562 -7.69,24.207 l 20.58,0 c 0,-5.7422 1.09,-9.4414 3.25,-11.082 2.17,-1.6328 7,-2.4531 14.48,-2.4531 13.17,0 19.75,5.4375 19.75,16.3281 l 0,19.9414 -0.46,0.0977 c -3.77,-9.4727 -12.43,-14.1993 -25.97,-14.1993 -13.42,0 -22.59,3.2422 -27.51,9.7461 -4.92,6.4844 -7.38,18.6133 -7.38,36.3672 0,16.6989 2.46,28.2229 7.38,34.6019 4.92,6.367 13.83,9.558 26.76,9.558 14.11,0 23.35,-5.234 27.75,-15.683 l 0.46,0 -1.03,14.66 21.25,0"
             inkscape:connector-curvature="0"
             id="path74"
             style="fill:#74777e;fill-opacity:1;fill-rule:nonzero;stroke:none" /><path
             d="m 3712.75,93.0469 -0.09,3.5351 c 0,7.051 -1.22,11.621 -3.66,13.73 -2.45,2.09 -7.75,3.145 -15.92,3.145 -7.91,0 -13.07,-1.269 -15.44,-3.801 -2.38,-2.539 -3.57,-8.074 -3.57,-16.6091 l 38.68,0 z m -0.18,-25.1367 21.33,0 0,-3.4375 c 0,-17.3165 -12.99,-25.9766 -38.96,-25.9766 -17.62,0 -29.16,3.0078 -34.6,9.0039 -5.44,5.9961 -8.17,18.7109 -8.17,38.125 0,17.266 2.84,28.855 8.54,34.797 5.69,5.933 16.79,8.902 33.31,8.902 15.83,0 26.43,-2.886 31.81,-8.672 5.39,-5.789 8.07,-17.156 8.07,-34.0895 l 0,-6.5039 -60.02,0 c -0.13,-1.9727 -0.18,-3.2813 -0.18,-3.8867 0,-8.7305 1.34,-14.5391 4.03,-17.4414 2.69,-2.9102 8.06,-4.3672 16.09,-4.3672 7.8,0 12.87,0.8515 15.22,2.5508 2.35,1.6992 3.53,5.3711 3.53,10.9961"
             inkscape:connector-curvature="0"
             id="path76"
             style="fill:#74777e;fill-opacity:1;fill-rule:nonzero;stroke:none" /><path
             d="m 3746.88,128.215 21.24,0 -0.56,-13.645 0.47,-0.09 c 4.33,9.836 13.36,14.758 27.09,14.758 16.02,0 24.92,-5.476 26.72,-16.426 l 0.37,0 c 4.14,10.95 13.26,16.426 27.37,16.426 20.53,0 30.8,-10.332 30.8,-30.9958 l 0,-58.7188 -21.25,0 0,54.0899 c 0,12.5467 -5.16,18.8277 -15.49,18.8277 -12.93,0 -19.4,-7.019 -19.4,-21.0543 l 0,-51.8633 -21.24,0 0,54.918 c 0,7.3556 -0.97,12.1996 -2.92,14.5236 -1.95,2.312 -6.07,3.476 -12.38,3.476 -13.06,0 -19.58,-7.175 -19.58,-21.523 l 0,-51.3946 -21.24,0 0,88.6916"
             inkscape:connector-curvature="0"
             id="path78"
             style="fill:#74777e;fill-opacity:1;fill-rule:nonzero;stroke:none" /><path
             d="m 3954.66,93.0469 -0.08,3.5351 c 0,7.051 -1.23,11.621 -3.67,13.73 -2.45,2.09 -7.75,3.145 -15.91,3.145 -7.92,0 -13.07,-1.269 -15.44,-3.801 -2.39,-2.539 -3.58,-8.074 -3.58,-16.6091 l 38.68,0 z m -0.17,-25.1367 21.33,0 0,-3.4375 c 0,-17.3165 -12.99,-25.9766 -38.97,-25.9766 -17.62,0 -29.16,3.0078 -34.6,9.0039 -5.44,5.9961 -8.16,18.7109 -8.16,38.125 0,17.266 2.84,28.855 8.53,34.797 5.7,5.933 16.79,8.902 33.31,8.902 15.83,0 26.44,-2.886 31.82,-8.672 5.38,-5.789 8.07,-17.156 8.07,-34.0895 l 0,-6.5039 -60.02,0 c -0.13,-1.9727 -0.19,-3.2813 -0.19,-3.8867 0,-8.7305 1.35,-14.5391 4.03,-17.4414 2.7,-2.9102 8.06,-4.3672 16.1,-4.3672 7.79,0 12.87,0.8515 15.21,2.5508 2.36,1.6992 3.54,5.3711 3.54,10.9961"
             inkscape:connector-curvature="0"
             id="path80"
             style="fill:#74777e;fill-opacity:1;fill-rule:nonzero;stroke:none" /><path
             d="m 3988.8,128.215 21.06,0 -0.84,-14.934 0.47,-0.097 c 4.14,10.703 13.42,16.054 27.83,16.054 20.97,0 31.44,-9.785 31.44,-29.3161 l 0,-60.3985 -21.24,0 0,56.7774 -0.45,6.2192 c -1,6.613 -6.2,9.921 -15.59,9.921 -14.3,0 -21.44,-6.777 -21.44,-20.3121 l 0,-52.6055 -21.24,0 0,88.6916"
             inkscape:connector-curvature="0"
             id="path82"
             style="fill:#74777e;fill-opacity:1;fill-rule:nonzero;stroke:none" /><path
             d="m 4142.04,128.215 0,-16.145 -34.14,0 0,-44.5309 c 0,-8.2227 3.12,-12.3438 9.36,-12.3438 6.88,0 10.3,4.9805 10.3,14.9414 l 0,3.5235 18.1,0 0,-4.4493 c 0,-4.082 -0.13,-7.5781 -0.37,-10.4804 -1.18,-13.5547 -11.26,-20.3243 -30.26,-20.3243 -18.92,0 -28.37,8.6836 -28.37,26.0665 l 0,47.5973 -11.51,0 0,16.145 11.51,0 0,19.851 21.24,0 0,-19.851 34.14,0"
             inkscape:connector-curvature="0"
             id="path84"
             style="fill:#74777e;fill-opacity:1;fill-rule:nonzero;stroke:none" /><path
             d="m 2950.22,322.18 0,312.285 7.2,65.695 -131.4,-377.98 -81,0 -131.39,377.98 7.2,-65.695 0,-312.285 -98.1,0 0,566.976 115.19,0 135,-384.289 c 9,-26.996 12.6,-50.394 12.6,-50.394 0,0 3.61,24.297 12.6,50.394 l 135,384.289 115.2,0 0,-566.976 -98.1,0"
             inkscape:connector-curvature="0"
             id="path86"
             style="fill:#df3d3c;fill-opacity:1;fill-rule:nonzero;stroke:none" /><path
             d="m 3154.08,322.18 97.1914,0 0,566.977 -97.1914,0 0,-566.977 z"
             inkscape:connector-curvature="0"
             id="path88"
             style="fill:#df3d3c;fill-opacity:1;fill-rule:nonzero;stroke:none" /><path
             d="m 3624.77,322.18 -179.09,396.882 c 0,0 6.3,-36.898 6.3,-74.699 l 0,-322.183 -98.1,0 0,566.976 115.2,0 125.98,-286.187 c 14.41,-32.403 26.11,-81.899 26.11,-81.899 0,72.895 0,4.5 0,368.086 l 98.09,0 0,-566.976 -94.49,0"
             inkscape:connector-curvature="0"
             id="path90"
             style="fill:#df3d3c;fill-opacity:1;fill-rule:nonzero;stroke:none" /><path
             d="m 3828.17,322.18 0,566.976 305.99,0 0,-87.297 -207.9,0 0,-140.394 159.3,0 0,-88.199 -159.3,0 0,-161.993 216.9,0 0,-89.093 -314.99,0"
             inkscape:connector-curvature="0"
             id="path92"
             style="fill:#df3d3c;fill-opacity:1;fill-rule:nonzero;stroke:none" /><path
             d="m 2232.69,804.562 -69.3,0 0,-397.789 64.81,0 c 104.39,0 120.58,115.196 120.58,196.196 0,78.297 -11.7,201.593 -116.09,201.593 z m -4.49,-482.382 -162,0 0,566.976 170.09,0 c 162.89,0 211.5,-145.797 211.5,-284.39 0,-140.395 -59.41,-282.586 -219.59,-282.586"
             inkscape:connector-curvature="0"
             id="path94"
             style="fill:#ac1f22;fill-opacity:1;fill-rule:nonzero;stroke:none" /><path
             d="m 1679.2,322.18 0,566.976 305.99,0 0,-87.297 -207.89,0 0,-140.394 159.3,0 0,-88.199 -159.3,0 0,-161.993 216.89,0 0,-89.093 -314.99,0"
             inkscape:connector-curvature="0"
             id="path96"
             style="fill:#ac1f22;fill-opacity:1;fill-rule:nonzero;stroke:none" /><path
             d="m 1379.51,804.562 -32.4,0 0,-194.394 c 0,0 27.9,-11.699 51.3,-11.699 63.89,0 97.2,52.195 97.2,111.593 0,58.497 -34.2,94.5 -116.1,94.5 z m 152.09,-482.382 -184.49,202.488 0,-202.488 -98.1,0 0,566.976 130.5,0 c 156.59,0 215.99,-79.199 215.99,-179.996 0,-85.492 -54,-172.793 -136.79,-179.988 l 161.09,-167.395 0,-39.597 -88.2,0"
             inkscape:connector-curvature="0"
             id="path98"
             style="fill:#ac1f22;fill-opacity:1;fill-rule:nonzero;stroke:none" /></g></g></g></g></svg>