/* XPM */
static char *icon[] = {
/* columns rows colors chars-per-pixel */
"32 32 18 1 ",
"  c #AB1F21",
". c #AC1F22",
"X c #AD1F22",
"o c #AC2022",
"O c #C72523",
"+ c #C72624",
"@ c #C82624",
"# c #C92624",
"$ c #D52B23",
"% c #D52C24",
"& c #D52C25",
"* c #D62C24",
"= c #DF3D3B",
"- c #DE3C3C",
"; c #DF3D3C",
": c #DF3D3D",
"> c #DF3E3C",
", c None",
/* pixels */
",,,,,,,,,,,,,,,,,,,,,,,,,,,,,,,,",
",,,,,,,,,,,,,,,,,,,,,,,,,,,,,,,,",
",,,,,,,,,,,,,,,,,,,,,,,,,,,,,,,,",
",,,,,,,,,,,,,,,,,,,,,,,,,,,,,,,,",
",,,,,,,,,,,,,,,,,,,,,,,,,,,,,,,,",
",,,,,,,,,,,,,,,,,,,,,,,,,,,,,,,,",
",,,,,,,,,,,,,,;;;;,,,,,,,,,,,,,,",
",,,,,,,,,,,,;;;;;;;;,,,,,,,,,,,,",
",,,,,,,,,%%,,;;;;;;,,%%,,,,,,,,,",
",,,,,,,,%%%,,;;;;;;,,%%%,,,,,,,,",
",,,,,,,%%%%%,,;;=;,,%%%%%,,,,,,,",
",,,,,,,%%%%%$,,,,,,%%%%%%,,,,,,,",
",,,,,,,,%%%%,,,,,,,,%%%%,,,,,,,,",
",,,,,O,,,%%,,,,,,,,,,%%,,,@,,,,,",
",,,,@@@@,,,,,,,,,,,,,,,,+@@@,,,,",
",,,,@@@@@,,,,,,,,,,,,,,@@@@@,,,,",
",,,,@@@@@,,,,,,,,,,,,,,@@@@@,,,,",
",,,@@@@@@,,,,,,,,,,,,,,@@@@@@,,,",
",,,,,@@@,,,,,,,,,,,,,,,,@@+,,,,,",
",,,,,,,,,,,,,,,,,,,,,,,,,,,,,,,,",
",,....,,,,,,,,,,,,,,,,,,,, ...,,",
",,......,,,,,,,,,,,,,,,,......,,",
",,......,,,,,,,,,,,,,,,,......,,",
",,......,,,,,,,,,,,,,,,,......,,",
",,......,,,,,,,,,,,,,,,,......,,",
",,.....o,,,,,,,,,,,,,,,,o.....,,",
",,,,,,,,,,,,,,,,,,,,,,,,,,,,,,,,",
",,,,,,,,,,,,,,,,,,,,,,,,,,,,,,,,",
",,,,,,,,,,,,,,,,,,,,,,,,,,,,,,,,",
",,,,,,,,,,,,,,,,,,,,,,,,,,,,,,,,",
",,,,,,,,,,,,,,,,,,,,,,,,,,,,,,,,",
",,,,,,,,,,,,,,,,,,,,,,,,,,,,,,,,"
};
