<?xml version="1.0" encoding="UTF-8" standalone="no"?>
<!-- Created with Inkscape (http://www.inkscape.org/) -->

<svg
   xmlns:dc="http://purl.org/dc/elements/1.1/"
   xmlns:cc="http://creativecommons.org/ns#"
   xmlns:rdf="http://www.w3.org/1999/02/22-rdf-syntax-ns#"
   xmlns:svg="http://www.w3.org/2000/svg"
   xmlns="http://www.w3.org/2000/svg"
   xmlns:sodipodi="http://sodipodi.sourceforge.net/DTD/sodipodi-0.dtd"
   xmlns:inkscape="http://www.inkscape.org/namespaces/inkscape"
   version="1.1"
   width="128"
   height="128"
   id="svg2"
   xml:space="preserve"
   inkscape:version="0.48.5 r10040"
   sodipodi:docname="icon.svg"><sodipodi:namedview
     pagecolor="#ffffff"
     bordercolor="#666666"
     borderopacity="1"
     objecttolerance="10"
     gridtolerance="10"
     guidetolerance="10"
     inkscape:pageopacity="0"
     inkscape:pageshadow="2"
     inkscape:window-width="1280"
     inkscape:window-height="978"
     id="namedview50"
     showgrid="false"
     fit-margin-top="0"
     fit-margin-left="0"
     fit-margin-right="0"
     fit-margin-bottom="0"
     inkscape:zoom="0.70627394"
     inkscape:cx="70.085971"
     inkscape:cy="19.422763"
     inkscape:window-x="-4"
     inkscape:window-y="20"
     inkscape:window-maximized="1"
     inkscape:current-layer="svg2" /><metadata
     id="metadata8"><rdf:RDF><cc:Work
         rdf:about=""><dc:format>image/svg+xml</dc:format><dc:type
           rdf:resource="http://purl.org/dc/dcmitype/StillImage" /></cc:Work></rdf:RDF></metadata><defs
     id="defs6"><clipPath
       id="clipPath18"><path
         d="m 0,0 4145.66,0 0,955 L 0,955 0,0 z"
         inkscape:connector-curvature="0"
         id="path20" /></clipPath></defs><g
     id="g3189"
     transform="translate(5.598277,-24.442182)"><path
       style="fill:#d52c24;fill-opacity:1;fill-rule:nonzero;stroke:none"
       id="path22"
       inkscape:connector-curvature="0"
       d="m 34.58085,56.155861 11.205625,13.048875 c 0.4805,0.6205 -0.15625,1.0795 -0.15625,1.0795 -4.49025,2.421875 -7.73925,6.081625 -10.5185,10.2725 -0.551875,0.8315 -1.147,0.2275 -1.147,0.2275 l -14.19875,-10.63275 c 0,0 -0.610375,-0.358875 -0.07612,-1.068375 4.157625,-5.521 7.9345,-9.414625 13.973625,-13.090375 0,0 0.4575,-0.431125 0.917375,0.163125" /><path
       style="fill:#c82624;fill-opacity:1;fill-rule:nonzero;stroke:none"
       id="path24"
       inkscape:connector-curvature="0"
       d="m 14.703975,77.413611 16.78075,8.111875 c 0.797375,0.309125 0.398375,1.035125 0.398375,1.035125 -2.31825,5.517125 -3.730875,10.174875 -4.82075,15.818379 -0.182625,0.94487 -0.82375,0.64212 -0.82375,0.64212 L 7.3631255,94.825236 c 0,0 -0.5659125,-0.211875 -0.3295875,-0.938875 0.8379,-2.582125 5.107425,-12.88975 6.821312,-16.258375 0,0 0.30025,-0.51075 0.849125,-0.214375" /><path
       style="fill:#ac1f22;fill-opacity:1;fill-rule:nonzero;stroke:none"
       id="path26"
       inkscape:connector-curvature="0"
       d="m 5.314788,103.47174 c 3.8383875,1.18212 19.944312,4.89162 19.944312,4.89162 0.965375,0.29738 0.67775,1.0215 0.67775,1.0215 -1.111375,8.75 -0.870125,15.42775 -0.870125,17.73488 0,1.02287 -0.744625,0.8725 -0.744625,0.8725 -4.181125,0 -23.50388954,0 -23.50388954,0 -1.021485,0 -0.79736388,-0.92038 -0.79736388,-0.92038 0.19189388,-2.9145 1.03222642,-11.2085 4.27295392,-23.09912 0,0 0.161125,-0.76613 1.0209875,-0.501" /><path
       style="fill:#d52c24;fill-opacity:1;fill-rule:nonzero;stroke:none"
       id="path28"
       inkscape:connector-curvature="0"
       d="m 82.221975,56.155861 -11.205,13.048875 c -0.4805,0.6205 0.15625,1.0795 0.15625,1.0795 4.49025,2.421875 7.73925,6.081625 10.5185,10.2725 0.55175,0.8315 1.147,0.2275 1.147,0.2275 l 14.19875,-10.63275 c 0,0 0.610375,-0.358875 0.07612,-1.068375 -4.157745,-5.521 -7.934495,-9.414625 -13.97362,-13.090375 0,0 -0.4575,-0.431125 -0.918,0.163125" /><path
       style="fill:#df3d3c;fill-opacity:1;fill-rule:nonzero;stroke:none"
       id="path30"
       inkscape:connector-curvature="0"
       d="m 58.402225,67.324736 c 1.88575,0 5.377875,0.18025 7.026375,0.453625 0.86075,0.142625 1.07375,-0.42625 1.07375,-0.42625 l 7.053125,-14.73925 c 0,0 0.47225,-0.554625 -0.515625,-0.916 -5.264625,-1.92625 -8.064875,-2.8125 -14.637625,-2.8125 -6.495125,0 -9.374,0.88625 -14.63925,2.8125 -0.98725,0.361375 -0.515625,0.916 -0.515625,0.916 l 7.05325,14.73925 c 0,0 0.212875,0.568875 1.07425,0.42625 1.648,-0.273375 5.140625,-0.453625 7.027375,-0.453625" /><path
       style="fill:#c82624;fill-opacity:1;fill-rule:nonzero;stroke:none"
       id="path32"
       inkscape:connector-curvature="0"
       d="m 102.09948,77.413611 -16.780755,8.111875 c -0.797375,0.309125 -0.399,1.035125 -0.399,1.035125 2.318875,5.517125 3.7315,10.174875 4.821375,15.818379 0.182625,0.94487 0.82325,0.64212 0.82325,0.64212 l 18.87588,-8.195874 c 0,0 0.566,-0.211875 0.32962,-0.938875 -0.83837,-2.582125 -5.10737,-12.88975 -6.82125,-16.258375 0,0 -0.30025,-0.51075 -0.84912,-0.214375" /><path
       style="fill:#ac1f22;fill-opacity:1;fill-rule:nonzero;stroke:none"
       id="path34"
       inkscape:connector-curvature="0"
       d="m 111.4886,103.47174 c -3.83888,1.18212 -19.944375,4.89162 -19.944375,4.89162 -0.96525,0.29738 -0.677625,1.0215 -0.677625,1.0215 1.11125,8.75 0.869625,15.42775 0.869625,17.73488 0,1.02287 0.744625,0.8725 0.744625,0.8725 4.181625,0 23.50437,0 23.50437,0 1.0215,0 0.79738,-0.92038 0.79738,-0.92038 -0.19188,-2.9145 -1.03275,-11.2085 -4.273,-23.09912 0,0 -0.16113,-0.76613 -1.021,-0.501" /></g></svg>